<svg fill="none" height="40" viewBox="0 0 26 40" width="26" xmlns="http://www.w3.org/2000/svg"><path d="m11 39h4" stroke="#f99c23" stroke-linecap="round" stroke-linejoin="round" stroke-width="2"/><path d="m9 36h8" stroke="#f99c23" stroke-linecap="round" stroke-linejoin="round" stroke-width="2"/><path d="m9 33h8" stroke="#f99c23" stroke-linecap="round" stroke-linejoin="round" stroke-width="2"/><path d="m25 12s0-11-12-11-12 11-12 11c0 10 8 10 8 16v2h8v-2c0-6 8-6 8-16z" stroke="#75cccf" stroke-linecap="round" stroke-linejoin="round" stroke-width="2"/><path d="m7.07959 14.742-2.89345-.7821.0782-.1955 2.61975.6647.54741-2.3069-2.30694-.3128v-.2346l2.58064.3519z" fill="#75cccf"/><path d="m9.77754 15.4848-2.81525-.782.0391-.2346 2.73705.7429 1.48586-.9775-1.0558-2.0332-2.737-.0391.54741-2.26785-1.64223-.15641.0391-.2346 1.87683.1955-.54741 2.22876 2.6198.0782 1.173 2.3069z" fill="#75cccf"/><path d="m7.67406 11.942-.17993.1506 1.00348 1.1996.17993-.1506z" fill="#75cccf"/><path d="m13.5703 12.8651-3.3627-.6647.0391-.1955 3.089.5865.0782-2.3069-2.1897-2.18967-1.75949.35191.62559 1.64226-.19548.0782-.74291-1.87686 2.15049-.43011 2.3461 2.30697z" fill="#75cccf"/><path d="m12.1627 19.043-.3128-2.737 1.8768-1.2903-.391-2.2679.2346-.0391.391 2.3852-1.8768 1.3294.3128 2.5806z" fill="#75cccf"/><path d="m14.6651 17.7136-.9775-2.7762 1.955.1173.4692-2.5415 1.9551-1.7986-.0782-1.72047-2.0333.50831-1.5249-1.05572.1173-.15641 1.4467.97752 2.1897-.54741.1173 2.07238-1.9942 1.8377-.4692 2.6979-1.8377-.1564.8602 2.5025z" fill="#75cccf"/><path d="m19.9116 10.1061-1.7609.526.0672.2248 1.7609-.526z" fill="#75cccf"/><path d="m17.7541 17.7136h-.1955l.1173-2.3069 2.1896 1.2512.7038-1.6422-1.6813-2.1506 2.5415-.782.0391.1955-2.1896.7038 1.564 1.9942-.8602 2.0332-2.1114-1.2512z" fill="#75cccf"/><g fill="#f99c23"><path d="m5.12455 12.5914c.49668 0 .89932-.4026.89932-.8993s-.40264-.8993-.89932-.8993-.89932.4026-.89932.8993.40264.8993.89932.8993z"/><path d="m18.106 9.73705c.4967 0 .8993-.40264.8993-.89932s-.4026-.89931-.8993-.89931-.8993.40263-.8993.89931.4026.89932.8993.89932z"/><path d="m7.00137 15.563c.53986 0 .97751-.4376.97751-.9775 0-.5398-.43765-.9775-.97751-.9775-.53987 0-.97752.4377-.97752.9775 0 .5399.43765.9775.97752.9775z"/><path d="m11.2634 8.95503c.5398 0 .9775-.43765.9775-.97751 0-.53987-.4377-.97752-.9775-.97752-.5399 0-.9776.43765-.9776.97752 0 .53986.4377.97751.9776.97751z"/><path d="m16.2291 13.8426c.6911 0 1.2513-.5602 1.2513-1.2512s-.5602-1.2512-1.2513-1.2512c-.691 0-1.2512.5602-1.2512 1.2512s.5602 1.2512 1.2512 1.2512z"/><path d="m10.2467 13.2952c.6695 0 1.2121-.5427 1.2121-1.2121s-.5426-1.2121-1.2121-1.2121c-.66941 0-1.21209.5427-1.21209 1.2121s.54268 1.2121 1.21209 1.2121z"/><path d="m14.7824 19.043c.7558 0 1.3685-.6127 1.3685-1.3685s-.6127-1.3685-1.3685-1.3685-1.3685.6127-1.3685 1.3685.6127 1.3685 1.3685 1.3685z"/><path d="m13.5312 10.871c.3671 0 .6647-.2976.6647-.6648 0-.36706-.2976-.66467-.6647-.66467s-.6647.29761-.6647.66467c0 .3672.2976.6648.6647.6648z"/><path d="m14.5087 8.95503c.3239 0 .5865-.26259.5865-.58651s-.2626-.58651-.5865-.58651-.5865.26259-.5865.58651.2626.58651.5865.58651z"/><path d="m19.9437 10.7928c.3239 0 .5865-.2626.5865-.5865 0-.32396-.2626-.58655-.5865-.58655s-.5865.26259-.5865.58655c0 .3239.2626.5865.5865.5865z"/><path d="m18.1842 11.1838c.2375 0 .4301-.1926.4301-.4301 0-.2376-.1926-.4302-.4301-.4302-.2376 0-.4301.1926-.4301.4302 0 .2375.1925.4301.4301.4301z"/><path d="m15.9945 9.81526c.2376 0 .4301-.19256.4301-.43011 0-.23754-.1925-.4301-.4301-.4301-.2375 0-.4301.19256-.4301.4301 0 .23755.1926.43011.4301.43011z"/><path d="m10.0121 10.5191c.216 0 .391-.1751.391-.391 0-.21598-.175-.39104-.391-.39104-.21592 0-.39098.17506-.39098.39104 0 .2159.17506.391.39098.391z"/><path d="m8.56541 13.5298c.17276 0 .3128-.14.3128-.3128 0-.1727-.14004-.3128-.3128-.3128s-.31281.1401-.31281.3128c0 .1728.14005.3128.31281.3128z"/><path d="m11.3416 14.6637c.2159 0 .391-.175.391-.391 0-.2159-.1751-.391-.391-.391-.216 0-.391.1751-.391.391 0 .216.175.391.391.391z"/><path d="m4.22523 14.2336c.21594 0 .391-.175.391-.391 0-.2159-.17506-.391-.391-.391-.21595 0-.39101.1751-.39101.391 0 .216.17506.391.39101.391z"/><path d="m17.6368 18.1046c.2159 0 .391-.1751.391-.391 0-.216-.1751-.391-.391-.391-.216 0-.391.175-.391.391 0 .2159.175.391.391.391z"/><path d="m19.9046 17.3226c.2592 0 .4692-.2101.4692-.4692 0-.2592-.21-.4692-.4692-.4692-.2591 0-.4692.21-.4692.4692 0 .2591.2101.4692.4692.4692z"/><path d="m13.844 15.563c.2807 0 .5083-.2275.5083-.5083 0-.2807-.2276-.5083-.5083-.5083s-.5083.2276-.5083.5083c0 .2808.2276.5083.5083.5083z"/><path d="m9.30831 8.83774c.25914 0 .46921-.21007.46921-.46921s-.21007-.46921-.46921-.46921-.46921.21007-.46921.46921.21007.46921.46921.46921z"/><path d="m6.33668 10.089c.25913 0 .46921-.21011.46921-.46925 0-.25913-.21008-.46921-.46921-.46921-.25914 0-.46921.21008-.46921.46921 0 .25914.21007.46925.46921.46925z"/><path d="m7.58789 12.6696c.34552 0 .62561-.2801.62561-.6256s-.28009-.6256-.62561-.6256c-.34551 0-.62561.2801-.62561.6256s.2801.6256.62561.6256z"/><path d="m8.13529 10.3626c.30233 0 .54741-.245.54741-.54737 0-.30232-.24508-.54741-.54741-.54741s-.54741.24509-.54741.54741c0 .30237.24508.54737.54741.54737z"/><path d="m11.9672 16.9707c.3239 0 .5865-.2626.5865-.5865s-.2626-.5865-.5865-.5865c-.324 0-.5866.2626-.5866.5865s.2626.5865.5866.5865z"/><path d="m15.7599 15.7586c.324 0 .5865-.2626.5865-.5865 0-.324-.2625-.5866-.5865-.5866-.3239 0-.5865.2626-.5865.5866 0 .3239.2626.5865.5865.5865z"/><path d="m12.28 19.5904c.3023 0 .5474-.2451.5474-.5474s-.2451-.5474-.5474-.5474-.5474.2451-.5474.5474.2451.5474.5474.5474z"/><path d="m17.7932 16.1496c.3239 0 .5865-.2626.5865-.5866 0-.3239-.2626-.5865-.5865-.5865s-.5865.2626-.5865.5865c0 .324.2626.5866.5865.5866z"/><path d="m19.0835 13.4907c.3239 0 .5865-.2626.5865-.5865s-.2626-.5865-.5865-.5865-.5865.2626-.5865.5865.2626.5865.5865.5865z"/><path d="m9.73843 15.9541c.34547 0 .62557-.2801.62557-.6256 0-.3456-.2801-.6256-.62557-.6256-.34552 0-.62561.28-.62561.6256 0 .3455.28009.6256.62561.6256z"/><path d="m13.453 13.4516c.4103 0 .7429-.3326.7429-.7429s-.3326-.7429-.7429-.7429-.7429.3326-.7429.7429.3326.7429.7429.7429z"/><path d="m21.4686 12.9433c.4103 0 .743-.3326.743-.7429s-.3327-.7429-.743-.7429-.7429.3326-.7429.7429.3326.7429.7429.7429z"/><path d="m20.7257 15.9932c.5399 0 .9775-.4377.9775-.9776 0-.5398-.4376-.9775-.9775-.9775-.5398 0-.9775.4377-.9775.9775 0 .5399.4377.9776.9775.9776z"/></g></svg>